<svg width="7497" height="7496" viewBox="0 0 7497 7496" fill="none" xmlns="http://www.w3.org/2000/svg">
<mask id="mask0_13_22" style="mask-type:alpha" maskUnits="userSpaceOnUse" x="0" y="-1" width="7497" height="7497">
<rect x="0.980469" y="-0.00292969" width="7496" height="7496" rx="644" fill="url(#paint0_radial_13_22)"/>
</mask>
<g mask="url(#mask0_13_22)">
<rect x="0.980469" y="-0.00292969" width="7496" height="7496" rx="644" fill="url(#paint1_radial_13_22)"/>
<g opacity="0.26" filter="url(#filter0_f_13_22)">
<circle cx="3749" cy="3750" r="4712" fill="url(#paint2_radial_13_22)"/>
</g>
<path fill-rule="evenodd" clip-rule="evenodd" d="M2218.51 3646.75C2276.97 3763.68 2229.58 3905.88 2112.64 3964.35L1977.62 4031.86L3749.11 4953.03L5520.61 4031.86L5385.59 3964.35C5268.65 3905.88 5221.26 3763.68 5279.72 3646.75C5338.19 3529.81 5480.39 3482.41 5597.32 3540.88L6147.54 3815.99C6227.13 3855.79 6277.68 3936.86 6278.39 4025.84C6279.09 4114.83 6229.83 4196.69 6150.88 4237.75L3858.33 5429.87C3789.87 5465.47 3708.36 5465.47 3639.9 5429.87L1347.35 4237.75C1268.39 4196.69 1219.14 4114.83 1219.84 4025.84C1220.55 3936.86 1271.1 3855.79 1350.69 3815.99L1900.91 3540.88C2017.84 3482.41 2160.04 3529.81 2218.51 3646.75ZM1246.53 5018.93C1306.85 4902.94 1449.78 4857.8 1565.77 4918.12L3749.11 6053.46L5932.46 4918.12C6048.45 4857.8 6191.38 4902.94 6251.69 5018.93C6312.01 5134.93 6266.88 5277.86 6150.88 5338.17L3858.33 6530.3C3789.87 6565.9 3708.36 6565.9 3639.9 6530.3L1347.35 5338.17C1231.35 5277.86 1186.22 5134.93 1246.53 5018.93Z" fill="white"/>
<path fill-rule="evenodd" clip-rule="evenodd" d="M3748.52 1482.35C3509.57 1482.35 3280.4 1577.27 3111.44 1746.24C2942.47 1915.2 2847.55 2144.37 2847.55 2383.32C2847.55 2659.13 3004.57 2966.91 3222.07 3252.68C3406.38 3494.84 3615.31 3696.92 3748.52 3816.24C3881.73 3696.92 4090.66 3494.84 4274.98 3252.68C4492.47 2966.91 4649.49 2659.13 4649.49 2383.32C4649.49 2144.37 4554.57 1915.2 4385.61 1746.24C4216.64 1577.27 3987.48 1482.35 3748.52 1482.35ZM2810.14 1444.93C3059.01 1196.06 3396.56 1056.24 3748.52 1056.24C4100.48 1056.24 4438.03 1196.06 4686.91 1444.93C4935.78 1693.81 5075.6 2031.36 5075.6 2383.32C5075.6 2802.8 4846.96 3204.72 4614.04 3510.74C4376.19 3823.25 4106.32 4071.17 3971.45 4187.62C3967.82 4190.75 3964.09 4193.76 3960.26 4196.65C3899.21 4242.55 3824.9 4267.37 3748.52 4267.37C3672.14 4267.37 3597.83 4242.55 3536.79 4196.65C3532.96 4193.76 3529.22 4190.75 3525.59 4187.62C3390.72 4071.17 3120.86 3823.25 2883 3510.74C2650.09 3204.72 2421.45 2802.8 2421.45 2383.32C2421.45 2031.36 2561.26 1693.81 2810.14 1444.93Z" fill="white"/>
<path fill-rule="evenodd" clip-rule="evenodd" d="M3283.42 2383.32C3283.42 2126.45 3491.65 1918.21 3748.52 1918.21C4005.39 1918.21 4213.63 2126.45 4213.63 2383.32C4213.63 2640.19 4005.39 2848.42 3748.52 2848.42C3491.65 2848.42 3283.42 2640.19 3283.42 2383.32Z" fill="white"/>
</g>
<defs>
<filter id="filter0_f_13_22" x="-1063" y="-1062" width="9624" height="9624" filterUnits="userSpaceOnUse" color-interpolation-filters="sRGB">
<feFlood flood-opacity="0" result="BackgroundImageFix"/>
<feBlend mode="normal" in="SourceGraphic" in2="BackgroundImageFix" result="shape"/>
<feGaussianBlur stdDeviation="50" result="effect1_foregroundBlur_13_22"/>
</filter>
<radialGradient id="paint0_radial_13_22" cx="0" cy="0" r="1" gradientUnits="userSpaceOnUse" gradientTransform="translate(3748.98 3748) rotate(180) scale(3748)">
<stop stop-color="#1E0048"/>
<stop offset="1" stop-color="#080B24"/>
</radialGradient>
<radialGradient id="paint1_radial_13_22" cx="0" cy="0" r="1" gradientUnits="userSpaceOnUse" gradientTransform="translate(3748.98 3748) rotate(180) scale(3748)">
<stop stop-color="#1E0048"/>
<stop offset="1" stop-color="#070B26"/>
</radialGradient>
<radialGradient id="paint2_radial_13_22" cx="0" cy="0" r="1" gradientUnits="userSpaceOnUse" gradientTransform="translate(3749 3750) rotate(90) scale(4712)">
<stop stop-color="#A34496"/>
<stop offset="1" stop-color="#A34496" stop-opacity="0"/>
</radialGradient>
</defs>
</svg>
