<svg width="12008" height="5960" viewBox="0 0 12008 5960" fill="none" xmlns="http://www.w3.org/2000/svg">
<g clip-path="url(#clip0_7_2)">
<mask id="mask0_7_2" style="mask-type:luminance" maskUnits="userSpaceOnUse" x="0" y="0" width="12008" height="5960">
<path d="M12008 0H0V5960H12008V0Z" fill="white"/>
</mask>
<g mask="url(#mask0_7_2)">
<path d="M12008 0H0V5960H12008V0Z" fill="url(#paint0_radial_7_2)"/>
<g style="mix-blend-mode:hard-light" filter="url(#filter0_d_7_2)">
<path opacity="0.09" d="M3424.57 8001.23H4978.87C4978.87 8001.23 5850.68 7529.34 7200.48 7526.55C8550.28 7523.75 9397.78 8001.23 9397.78 8001.23H9454.44V5990.13C8388.76 5727.3 7069.85 5107 5560.41 5669.88C4050.96 6232.76 3893.28 7347.71 3424.57 8001.23Z" fill="url(#paint1_linear_7_2)"/>
</g>
<g style="mix-blend-mode:hard-light" filter="url(#filter1_d_7_2)">
<path opacity="0.18" d="M772.947 -0.269012L1192.4 -0.292999C3093.95 1454.19 4613.45 1212.02 5160.87 2695.03C5708.29 4178.03 4289.09 5124.34 3852.59 5960.3H44.43C564.161 5368.32 2277.16 4562.44 2459.29 3072.3C2641.42 1582.16 772.947 -0.269012 772.947 -0.269012Z" fill="url(#paint2_linear_7_2)"/>
</g>
<path style="mix-blend-mode:screen" opacity="0.08" d="M772.944 -0.269012L1192.39 -0.292999C3093.95 1454.19 4613.45 1212.02 5160.87 2695.03C5708.29 4178.03 4289.09 5124.34 3852.58 5960.3H44.427C564.158 5368.32 2277.16 4562.44 2459.29 3072.3C2641.42 1582.16 772.944 -0.269012 772.944 -0.269012Z" fill="url(#paint3_radial_7_2)"/>
<g style="mix-blend-mode:screen" filter="url(#filter2_d_7_2)">
<path opacity="0.2" d="M0.269989 899.317C1499.45 1767.32 2685.52 2034.72 3267.78 2979.27C3669.54 3631.01 3369.48 4217.55 3046.2 4922.63C2901.84 5237.48 2758.49 5588.38 2661.45 5960.3H0.269989V899.317Z" fill="url(#paint4_linear_7_2)"/>
</g>
<path style="mix-blend-mode:screen" opacity="0.09" d="M772.944 -0.269012L1192.39 -0.292999C3093.95 1454.19 4613.45 1212.02 5160.87 2695.03C5708.29 4178.03 4289.09 5124.34 3852.58 5960.3H44.427C564.158 5368.32 2277.16 4562.44 2459.29 3072.3C2641.42 1582.16 772.944 -0.269012 772.944 -0.269012Z" fill="url(#paint5_radial_7_2)"/>
<g style="mix-blend-mode:screen" filter="url(#filter3_d_7_2)">
<path opacity="0.04" d="M0.269989 899.317C1499.45 1767.32 2685.52 2034.72 3267.78 2979.27C3669.54 3631.01 3369.48 4217.55 3046.2 4922.63C2901.84 5237.48 2758.49 5588.38 2661.45 5960.3H0.269989V899.317Z" fill="url(#paint6_radial_7_2)"/>
</g>
<path style="mix-blend-mode:screen" opacity="0.14" d="M0.273987 -0.292999H1192.39C3093.95 1454.19 4613.45 1212.02 5160.87 2695.03C5708.29 4178.03 4289.08 5124.34 3852.58 5960.3H0.273987V-0.292999Z" fill="url(#paint7_radial_7_2)"/>
<g style="mix-blend-mode:lighten" opacity="0.17" filter="url(#filter4_d_7_2)">
<path d="M4873.61 -0.290009H12009.8V3835.46C11471.1 4212.72 10345.4 5515.25 8262.24 4738.91C6179.05 3962.57 6322.41 1876.75 4873.61 -0.290009Z" fill="url(#paint8_radial_7_2)"/>
</g>
<g style="mix-blend-mode:hard-light" filter="url(#filter5_d_7_2)">
<path opacity="0.25" d="M6972.57 -0.290009H8270.99C8270.99 -0.290009 8999.28 695.334 10126.9 699.454C11254.4 703.574 11871.9 -0.290009 11871.9 -0.290009H12009.8V3131.7C11119.5 3519.14 10017.7 4266.16 8756.79 3436.41C7495.84 2606.66 7364.12 963.079 6972.57 -0.290009Z" fill="url(#paint9_linear_7_2)"/>
</g>
</g>
</g>
<defs>
<filter id="filter0_d_7_2" x="3325.57" y="5342.08" width="6227.87" height="2758.15" filterUnits="userSpaceOnUse" color-interpolation-filters="sRGB">
<feFlood flood-opacity="0" result="BackgroundImageFix"/>
<feColorMatrix in="SourceAlpha" type="matrix" values="0 0 0 0 0 0 0 0 0 0 0 0 0 0 0 0 0 0 127 0" result="hardAlpha"/>
<feOffset/>
<feGaussianBlur stdDeviation="49.5"/>
<feColorMatrix type="matrix" values="0 0 0 0 0 0 0 0 0 0 0 0 0 0 0 0 0 0 0.25 0"/>
<feBlend mode="normal" in2="BackgroundImageFix" result="effect1_dropShadow_7_2"/>
<feBlend mode="normal" in="SourceGraphic" in2="effect1_dropShadow_7_2" result="shape"/>
</filter>
<filter id="filter1_d_7_2" x="-54.57" y="-99.293" width="5438.27" height="6158.59" filterUnits="userSpaceOnUse" color-interpolation-filters="sRGB">
<feFlood flood-opacity="0" result="BackgroundImageFix"/>
<feColorMatrix in="SourceAlpha" type="matrix" values="0 0 0 0 0 0 0 0 0 0 0 0 0 0 0 0 0 0 127 0" result="hardAlpha"/>
<feOffset/>
<feGaussianBlur stdDeviation="49.5"/>
<feColorMatrix type="matrix" values="0 0 0 0 0 0 0 0 0 0 0 0 0 0 0 0 0 0 0.25 0"/>
<feBlend mode="normal" in2="BackgroundImageFix" result="effect1_dropShadow_7_2"/>
<feBlend mode="normal" in="SourceGraphic" in2="effect1_dropShadow_7_2" result="shape"/>
</filter>
<filter id="filter2_d_7_2" x="-98.73" y="800.317" width="3658.6" height="5258.98" filterUnits="userSpaceOnUse" color-interpolation-filters="sRGB">
<feFlood flood-opacity="0" result="BackgroundImageFix"/>
<feColorMatrix in="SourceAlpha" type="matrix" values="0 0 0 0 0 0 0 0 0 0 0 0 0 0 0 0 0 0 127 0" result="hardAlpha"/>
<feOffset/>
<feGaussianBlur stdDeviation="49.5"/>
<feColorMatrix type="matrix" values="0 0 0 0 0 0 0 0 0 0 0 0 0 0 0 0 0 0 0.25 0"/>
<feBlend mode="normal" in2="BackgroundImageFix" result="effect1_dropShadow_7_2"/>
<feBlend mode="normal" in="SourceGraphic" in2="effect1_dropShadow_7_2" result="shape"/>
</filter>
<filter id="filter3_d_7_2" x="-98.73" y="800.317" width="3658.6" height="5258.98" filterUnits="userSpaceOnUse" color-interpolation-filters="sRGB">
<feFlood flood-opacity="0" result="BackgroundImageFix"/>
<feColorMatrix in="SourceAlpha" type="matrix" values="0 0 0 0 0 0 0 0 0 0 0 0 0 0 0 0 0 0 127 0" result="hardAlpha"/>
<feOffset/>
<feGaussianBlur stdDeviation="49.5"/>
<feColorMatrix type="matrix" values="0 0 0 0 0 0 0 0 0 0 0 0 0 0 0 0 0 0 0.25 0"/>
<feBlend mode="normal" in2="BackgroundImageFix" result="effect1_dropShadow_7_2"/>
<feBlend mode="normal" in="SourceGraphic" in2="effect1_dropShadow_7_2" result="shape"/>
</filter>
<filter id="filter4_d_7_2" x="4774.61" y="-99.29" width="7334.15" height="5179.75" filterUnits="userSpaceOnUse" color-interpolation-filters="sRGB">
<feFlood flood-opacity="0" result="BackgroundImageFix"/>
<feColorMatrix in="SourceAlpha" type="matrix" values="0 0 0 0 0 0 0 0 0 0 0 0 0 0 0 0 0 0 127 0" result="hardAlpha"/>
<feOffset/>
<feGaussianBlur stdDeviation="49.5"/>
<feColorMatrix type="matrix" values="0 0 0 0 0 0 0 0 0 0 0 0 0 0 0 0 0 0 0.361 0"/>
<feBlend mode="normal" in2="BackgroundImageFix" result="effect1_dropShadow_7_2"/>
<feBlend mode="normal" in="SourceGraphic" in2="effect1_dropShadow_7_2" result="shape"/>
</filter>
<filter id="filter5_d_7_2" x="6873.57" y="-99.29" width="5235.19" height="4010.61" filterUnits="userSpaceOnUse" color-interpolation-filters="sRGB">
<feFlood flood-opacity="0" result="BackgroundImageFix"/>
<feColorMatrix in="SourceAlpha" type="matrix" values="0 0 0 0 0 0 0 0 0 0 0 0 0 0 0 0 0 0 127 0" result="hardAlpha"/>
<feOffset/>
<feGaussianBlur stdDeviation="49.5"/>
<feColorMatrix type="matrix" values="0 0 0 0 0 0 0 0 0 0 0 0 0 0 0 0 0 0 0.18 0"/>
<feBlend mode="normal" in2="BackgroundImageFix" result="effect1_dropShadow_7_2"/>
<feBlend mode="normal" in="SourceGraphic" in2="effect1_dropShadow_7_2" result="shape"/>
</filter>
<radialGradient id="paint0_radial_7_2" cx="0" cy="0" r="1" gradientUnits="userSpaceOnUse" gradientTransform="translate(-12006 -5958) rotate(180) scale(12008 5960)">
<stop stop-color="#06163A"/>
<stop offset="1" stop-color="#040E29"/>
</radialGradient>
<linearGradient id="paint1_linear_7_2" x1="6270.67" y1="6419.06" x2="6530.16" y2="4689.72" gradientUnits="userSpaceOnUse">
<stop stop-color="#858585"/>
<stop offset="1" stop-color="white"/>
</linearGradient>
<linearGradient id="paint2_linear_7_2" x1="5122.25" y1="2372.02" x2="-9.13995" y2="2229.17" gradientUnits="userSpaceOnUse">
<stop stop-color="white"/>
<stop offset="1" stop-color="#040E29"/>
</linearGradient>
<radialGradient id="paint3_radial_7_2" cx="0" cy="0" r="1" gradientUnits="userSpaceOnUse" gradientTransform="translate(-5299.17 2785.86) rotate(134.838) scale(2866.01 8244.44)">
<stop stop-color="white"/>
<stop offset="1"/>
</radialGradient>
<linearGradient id="paint4_linear_7_2" x1="-120.851" y1="4431.88" x2="3464.25" y2="3865.24" gradientUnits="userSpaceOnUse">
<stop stop-color="#040F2C"/>
<stop offset="0.67" stop-color="#040E29"/>
<stop offset="1" stop-color="#374565"/>
</linearGradient>
<radialGradient id="paint5_radial_7_2" cx="0" cy="0" r="1" gradientUnits="userSpaceOnUse" gradientTransform="translate(145.482 2027.65) rotate(109.704) scale(3074.58 5003.51)">
<stop stop-color="white"/>
<stop offset="1"/>
</radialGradient>
<radialGradient id="paint6_radial_7_2" cx="0" cy="0" r="1" gradientUnits="userSpaceOnUse" gradientTransform="translate(-71.1588 922.098) rotate(16.1342) scale(3212.73 2150.86)">
<stop stop-color="white"/>
<stop offset="1" stop-color="#374565"/>
</radialGradient>
<radialGradient id="paint7_radial_7_2" cx="0" cy="0" r="1" gradientUnits="userSpaceOnUse" gradientTransform="translate(90.9659 64.803) rotate(12.2429) scale(3703.4 3685.54)">
<stop stop-color="white"/>
<stop offset="1"/>
</radialGradient>
<radialGradient id="paint8_radial_7_2" cx="0" cy="0" r="1" gradientUnits="userSpaceOnUse" gradientTransform="translate(6612.5 4776) rotate(-57.6996) scale(6124.17 8772.62)">
<stop stop-color="#969696"/>
<stop offset="1" stop-opacity="0"/>
</radialGradient>
<linearGradient id="paint9_linear_7_2" x1="7708" y1="2870.61" x2="10996.2" y2="-776.791" gradientUnits="userSpaceOnUse">
<stop stop-color="#828282"/>
<stop offset="1" stop-color="white"/>
</linearGradient>
<clipPath id="clip0_7_2">
<rect width="12008" height="5960" fill="white"/>
</clipPath>
</defs>
</svg>
