<svg width="5060" height="5501" viewBox="0 0 5060 5501" fill="none" xmlns="http://www.w3.org/2000/svg">
    <title>Linkub Logo</title>
    <style>
        svg { color: white }
        @media (prefers-color-scheme: light) {
            svg { color: black; }
        }
    </style>

    <path fill-rule="evenodd" clip-rule="evenodd" d="M999.506 2590.75C1057.97 2707.68 1010.58 2849.88 893.639 2908.35L758.621 2975.86L2530.11 3897.03L4301.61 2975.86L4166.59 2908.35C4049.65 2849.88 4002.26 2707.68 4060.72 2590.75C4119.19 2473.81 4261.39 2426.41 4378.32 2484.88L4928.54 2759.99C5008.13 2799.79 5058.68 2880.86 5059.39 2969.84C5060.09 3058.83 5010.83 3140.69 4931.88 3181.75L2639.33 4373.87C2570.87 4409.47 2489.36 4409.47 2420.9 4373.87L128.347 3181.75C49.395 3140.69 0.137209 3058.83 0.843393 2969.84C1.54958 2880.86 52.1004 2799.79 131.694 2759.99L681.907 2484.88C798.843 2426.41 941.037 2473.81 999.506 2590.75ZM27.5344 3962.93C87.8513 3846.94 230.779 3801.8 346.773 3862.12L2530.11 4997.46L4713.46 3862.12C4829.45 3801.8 4972.38 3846.94 5032.69 3962.93C5093.01 4078.93 5047.88 4221.86 4931.88 4282.17L2639.33 5474.3C2570.87 5509.9 2489.36 5509.9 2420.9 5474.3L128.347 4282.17C12.3528 4221.86 -32.7824 4078.93 27.5344 3962.93Z" fill="currentColor"/>
    <path fill-rule="evenodd" clip-rule="evenodd" d="M2529.52 426.347C2290.57 426.347 2061.4 521.27 1892.44 690.235C1723.47 859.2 1628.55 1088.37 1628.55 1327.32C1628.55 1603.13 1785.57 1910.91 2003.07 2196.68C2187.38 2438.84 2396.31 2640.92 2529.52 2760.24C2662.73 2640.92 2871.66 2438.84 3055.98 2196.68C3273.47 1910.91 3430.49 1603.13 3430.49 1327.32C3430.49 1088.37 3335.57 859.2 3166.61 690.235C2997.64 521.27 2768.48 426.347 2529.52 426.347ZM1591.14 388.935C1840.01 140.06 2177.56 0.243164 2529.52 0.243164C2881.48 0.243164 3219.03 140.06 3467.91 388.935C3716.78 637.809 3856.6 975.356 3856.6 1327.32C3856.6 1746.8 3627.96 2148.72 3395.04 2454.74C3157.19 2767.25 2887.32 3015.17 2752.45 3131.62C2748.82 3134.75 2745.09 3137.76 2741.26 3140.65C2680.21 3186.55 2605.9 3211.37 2529.52 3211.37C2453.14 3211.37 2378.83 3186.55 2317.79 3140.65C2313.96 3137.76 2310.22 3134.75 2306.59 3131.62C2171.72 3015.17 1901.86 2767.25 1664 2454.74C1431.09 2148.72 1202.45 1746.8 1202.45 1327.32C1202.45 975.356 1342.26 637.809 1591.14 388.935Z" fill="currentColor"/>
    <path fill-rule="evenodd" clip-rule="evenodd" d="M2064.42 1327.32C2064.42 1070.45 2272.65 862.215 2529.52 862.215C2786.39 862.215 2994.63 1070.45 2994.63 1327.32C2994.63 1584.19 2786.39 1792.42 2529.52 1792.42C2272.65 1792.42 2064.42 1584.19 2064.42 1327.32Z" fill="currentColor"/>
</svg>
