<svg xmlns="http://www.w3.org/2000/svg" xmlns:xlink="http://www.w3.org/1999/xlink" viewBox="0 0 2560 1440"><defs><linearGradient id="f" x1=".47" x2=".69" y1=".38" y2="-.23" gradientUnits="objectBoundingBox"><stop offset="0" stop-color="#858585"/><stop offset="1" stop-color="#fff"/></linearGradient><linearGradient id="g" x1=".16" x2=".66" y1=".9" y2=".15" gradientUnits="objectBoundingBox"><stop offset="0" stop-color="#c2152f"/><stop offset=".56" stop-color="#e34c24"/><stop offset="1" stop-color="#ff8a31"/></linearGradient><linearGradient id="i" x1=".97" x2="-.01" y1=".4" y2=".37" gradientUnits="objectBoundingBox"><stop offset="0" stop-color="#fff"/><stop offset="1" stop-color="#040e29"/></linearGradient><linearGradient id="k" x1="-.04" x2=".97" y1=".7" y2=".47" gradientUnits="objectBoundingBox"><stop offset="0" stop-color="#040f2c"/><stop offset=".67" stop-color="#040e29"/><stop offset="1" stop-color="#374565"/></linearGradient><linearGradient id="q" x1=".22" x2=".61" y1=".73" y2=".2" gradientUnits="objectBoundingBox"><stop offset="0" stop-color="#f4a351"/><stop offset=".5" stop-color="#e36434"/><stop offset="1" stop-color="#e3287a"/></linearGradient><linearGradient id="r" x1=".6" x2=".2" y1=".27" y2=".47" gradientUnits="objectBoundingBox"><stop offset="0" stop-opacity="0"/><stop offset="1" stop-color="#fff"/></linearGradient><linearGradient id="v" x1=".25" x2="1.1" y1=".8" y2=".13" gradientUnits="objectBoundingBox"><stop offset="0" stop-color="#f5b063"/><stop offset=".46" stop-color="#ef6666"/><stop offset=".69" stop-color="#e24370"/><stop offset="1" stop-color="#cf34d5"/></linearGradient><linearGradient id="x" x1=".15" x2="1" y1=".75" y2=".04" gradientUnits="objectBoundingBox"><stop offset="0" stop-color="#828282"/><stop offset="1" stop-color="#fff"/></linearGradient><filter id="e" width="1832.55" height="948.96" x="765.6" y="1159.63" filterUnits="userSpaceOnUse"><feOffset/><feGaussianBlur result="blur" stdDeviation="49.5"/><feFlood/><feComposite in2="blur" operator="in"/><feComposite in="SourceGraphic"/></filter><filter id="h" width="1758.85" height="1959.79" x="-137.38" y="-370.57" filterUnits="userSpaceOnUse"><feOffset/><feGaussianBlur result="blur-2" stdDeviation="49.5"/><feFlood/><feComposite in2="blur-2" operator="in"/><feComposite in="SourceGraphic"/></filter><filter id="j" width="1262.38" height="1708.83" x="-149.7" y="-119.61" filterUnits="userSpaceOnUse"><feOffset/><feGaussianBlur result="blur-3" stdDeviation="49.5"/><feFlood/><feComposite in2="blur-3" operator="in"/><feComposite in="SourceGraphic"/></filter><filter id="m" width="1262.38" height="1708.83" x="-149.7" y="-119.61" filterUnits="userSpaceOnUse"><feOffset/><feGaussianBlur result="blur-4" stdDeviation="49.5"/><feFlood/><feComposite in2="blur-4" operator="in"/><feComposite in="SourceGraphic"/></filter><filter id="p" width="1880.97" height="882.96" x="797.6" y="-175.1" filterUnits="userSpaceOnUse"><feOffset/><feGaussianBlur result="blur-5" stdDeviation="49.5"/><feFlood flood-opacity=".35"/><feComposite in2="blur-5" operator="in"/><feComposite in="SourceGraphic"/></filter><filter id="s" width="2114.28" height="1565.64" x="1290.92" y="-175.1" filterUnits="userSpaceOnUse"><feOffset/><feGaussianBlur result="blur-6" stdDeviation="49.5"/><feFlood flood-opacity=".36"/><feComposite in2="blur-6" operator="in"/><feComposite in="SourceGraphic"/></filter><filter id="u" width="1938.46" height="1202.72" x="1520.65" y="-246.54" filterUnits="userSpaceOnUse"><feOffset/><feGaussianBlur result="blur-7" stdDeviation="49.5"/><feFlood flood-opacity=".16"/><feComposite in2="blur-7" operator="in"/><feComposite in="SourceGraphic"/></filter><filter id="w" width="1579.76" height="1267.91" x="1825.44" y="-175.1" filterUnits="userSpaceOnUse"><feOffset/><feGaussianBlur result="blur-8" stdDeviation="49.5"/><feFlood flood-opacity=".18"/><feComposite in2="blur-8" operator="in"/><feComposite in="SourceGraphic"/></filter><radialGradient id="c" cx="1" cy="1" r="1" gradientTransform="rotate(180 1 1)" gradientUnits="objectBoundingBox"><stop offset="0" stop-color="#06163a"/><stop offset="1" stop-color="#040e29"/></radialGradient><radialGradient id="a" cx="1.03" cy=".23" r=".55" gradientTransform="matrix(-.705 .709 -1.793 -1.783 2.16 -.1)" gradientUnits="objectBoundingBox"><stop offset="0" stop-color="#fff"/><stop offset="1"/></radialGradient><radialGradient xlink:href="#a" id="l" cx=".27" cy=".01" r=".59" gradientTransform="matrix(-.337 .941 -1.346 -.483 .38 -.24)"/><radialGradient id="n" cx="-.02" cy=".02" r=".93" gradientTransform="matrix(.961 .278 -.127 .44 0 .01)" gradientUnits="objectBoundingBox"><stop offset="0" stop-color="#fff"/><stop offset="1" stop-color="#374565"/></radialGradient><radialGradient xlink:href="#a" id="o" cx="0" cy="0" r=".7" gradientTransform="matrix(.977 .212 -.187 .862 0 0)"/><radialGradient xlink:href="#a" id="t" cx="1.22" cy=".52" r="1.05" gradientTransform="matrix(-.984 -.179 1.174 -6.449 1.81 4.12)"/><clipPath id="d"><path fill="none" d="M150 371h2559.81v1439.15H150z"/></clipPath><clipPath id="b"><path d="M0 0h2560v1440H0z"/></clipPath></defs><g clip-path="url(#b)"><path fill="url(#c)" d="M0 0h2560v1440H0z"/><g clip-path="url(#d)" data-name="Groupe défilant 1" style="isolation:isolate" transform="translate(-149.7 -370.57)"><g filter="url(#e)" style="mix-blend-mode:hard-light;isolation:isolate" transform="translate(149.7 370.57)"><path fill="url(#f)" d="M0 656.71h395.81s222.02-120.17 565.75-120.88 559.56 120.88 559.56 120.88h14.43V144.57C1264.17 77.64 928.3-80.33 543.91 63S119.36 490.3 0 656.71Z" data-name="Tracé 12" opacity=".09" transform="translate(914.1 1303.38)"/></g><g data-name="Groupe 1"><path fill="url(#g)" d="M0 75.08s468.09-233 855.62-1.25 412.89 653.85 412.89 653.85H0Z" data-name="Tracé 1" transform="translate(25.4 1205.57)"/><g filter="url(#h)" style="mix-blend-mode:hard-light;isolation:isolate" transform="translate(149.7 370.57)"><path fill="url(#i)" d="M203.23-484h117.01C850.71-78.25 1274.6-145.8 1427.3 267.9s-243.2 677.7-364.96 910.9H0c144.99-165.15 622.85-389.96 673.66-805.65S203.23-484 203.23-484Z" data-name="Tracé 2" opacity=".18" transform="translate(11.12 261.93)"/></g><path fill="url(#a)" d="M203.23-484h117.01C850.71-78.25 1274.6-145.8 1427.3 267.9s-243.2 677.7-364.96 910.9H0c144.99-165.15 622.85-389.96 673.66-805.65S203.23-484 203.23-484Z" data-name="Tracé 10" opacity=".08" style="mix-blend-mode:screen;isolation:isolate" transform="translate(160.82 632.5)"/><g filter="url(#j)" style="mix-blend-mode:screen;isolation:isolate" transform="translate(149.7 370.57)"><path fill="url(#k)" d="M0 0c418.22 242.14 749.09 316.74 911.52 580.23 112.07 181.81 28.37 345.44-61.81 542.13-40.28 87.83-80.27 185.72-107.34 289.47H0Z" data-name="Tracé 5" opacity=".2" transform="translate(-1.2 28.89)"/></g><path fill="#fff" d="M.02 561.02c267.32-83.2 615.15-110.3 900.04 177.9-15.28 35.13-33.22 73.75-50.35 111.12-40.28 87.83-80.27 185.72-107.34 289.47H0Z" data-name="Tracé 11" opacity=".21" style="mix-blend-mode:overlay;isolation:isolate" transform="translate(148.5 671.78)"/><path fill="url(#l)" d="M203.23-484h117.01C850.71-78.25 1274.6-145.8 1427.3 267.9s-243.2 677.7-364.96 910.9H0c144.99-165.15 622.85-389.96 673.66-805.65S203.23-484 203.23-484Z" data-name="Tracé 13" opacity=".09" style="mix-blend-mode:screen;isolation:isolate" transform="translate(160.82 632.5)"/><g filter="url(#m)" style="mix-blend-mode:screen;isolation:isolate" transform="translate(149.7 370.57)"><path fill="url(#n)" d="M0 0c418.22 242.14 749.09 316.74 911.52 580.23 112.07 181.81 28.37 345.44-61.81 542.13-40.28 87.83-80.27 185.72-107.34 289.47H0Z" data-name="Tracé 14" opacity=".04" transform="translate(-1.2 28.89)"/></g><path fill="url(#o)" d="M-8-484h332.56C855.02-78.25 1278.9-145.8 1431.62 267.9s-243.2 677.7-364.96 910.9H-8Z" data-name="Tracé 15" opacity=".14" style="mix-blend-mode:screen;isolation:isolate" transform="translate(156.5 632.5)"/></g><g data-name="Groupe 3"><g filter="url(#p)" transform="translate(149.7 370.57)"><path fill="url(#q)" d="M0 0h1583.97S1335.6 574.55 847.42 585.68 388.94 273.85 0 0Z" data-name="Tracé 4" transform="translate(946.1 -26.6)"/></g><path fill="url(#r)" d="m0 0 629.28 6.91 11.4 461.33S516.12 562.31 474.54 571.1s-68.61 15.94-159.17 14.76C233.75 399.36 150.8 195.36 0 0Z" data-name="Tracé 9" opacity=".27" style="mix-blend-mode:overlay;isolation:isolate" transform="translate(1589.12 343.97)"/><g filter="url(#s)" style="mix-blend-mode:screen;isolation:isolate" transform="translate(149.7 370.57)"><path fill="url(#t)" d="M0 0h1817.28v976.8c-137.17 96.07-423.84 427.77-954.34 230.07S368.95 478 0 0Z" data-name="Tracé 8" opacity=".11" transform="translate(1439.42 -26.6)"/></g><g filter="url(#u)" transform="translate(149.7 370.57)"><path fill="url(#v)" d="M0 0h1641.46v671.03c-394.65 14.94-755.81 353.04-1122.75 190.7S279.38 341.74 0 0Z" data-name="Tracé 3" transform="translate(1669.15 -98.04)"/></g><g filter="url(#w)" style="mix-blend-mode:hard-light;isolation:isolate" transform="translate(149.7 370.57)"><path fill="url(#x)" d="M0 0h330.65s185.47 177.15 472.62 178.2S1247.64 0 1247.64 0h35.1v797.59c-226.7 98.66-507.27 288.9-828.38 77.6S99.7 245.33 0 0Z" data-name="Tracé 7" opacity=".25" transform="translate(1973.94 -26.6)"/></g></g></g></g></svg>